<?xml version="1.0" encoding="utf-8"?>
<!-- Generator: Adobe Illustrator 16.0.0, SVG Export Plug-In . SVG Version: 6.00 Build 0)  -->
<!DOCTYPE svg PUBLIC "-//W3C//DTD SVG 1.1//EN" "http://www.w3.org/Graphics/SVG/1.1/DTD/svg11.dtd">
<svg version="1.1" id="Calque_1" xmlns="http://www.w3.org/2000/svg" xmlns:xlink="http://www.w3.org/1999/xlink" x="0px" y="0px"
	 width="8.615px" height="7.507px" viewBox="0 0 8.615 7.507" enable-background="new 0 0 8.615 7.507" xml:space="preserve">
<path fill="none" d="M9.431,3.482L7.627,1.679c-0.341,0.341-0.892,0.342-1.233,0c-0.34-0.34-0.34-0.892,0.002-1.233L4.593-1.356l0,0
	c-0.342,0.341-0.894,0.341-1.234,0l0,0l-4.078,4.078l0,0c0.341,0.341,0.341,0.893,0,1.234l1.802,1.801
	c0.341-0.341,0.893-0.34,1.233,0c0.341,0.342,0.34,0.894,0,1.233l1.802,1.803C4.46,8.451,5.01,8.451,5.351,8.792l4.078-4.077
	C9.089,4.375,9.09,3.823,9.431,3.482z M2.222,2.817C1.88,2.476,1.88,1.925,2.221,1.583c0.34-0.34,0.893-0.34,1.234,0
	c0.341,0.341,0.34,0.894,0,1.234C3.114,3.158,2.563,3.158,2.222,2.817z M5.256,5.853c-0.341-0.341-0.341-0.892,0-1.231
	C5.598,4.28,6.149,4.279,6.489,4.619c0.342,0.342,0.341,0.894,0,1.233C6.148,6.193,5.598,6.193,5.256,5.853z"/>
<path d="M6.394,1.679c0.342,0.341,0.894,0.34,1.233,0L6.396,0.446C6.053,0.787,6.054,1.339,6.394,1.679z"/>
<circle cx="2.838" cy="2.2" r="0.872"/>
<circle cx="5.873" cy="5.236" r="0.872"/>
<path d="M2.315,5.759c-0.34-0.341-0.892-0.341-1.232,0l1.233,1.233C2.657,6.65,2.657,6.1,2.315,5.759z"/>
<path d="M7.571,0.503c-0.341-0.34-0.893-0.341-1.232,0l1.233,1.233C7.912,1.395,7.912,0.845,7.571,0.503z"/>
<path d="M1.083,6.992c0.341,0.34,0.893,0.339,1.233-0.002L1.083,5.759C0.741,6.1,0.742,6.651,1.083,6.992z"/>
</svg>
