<?xml version="1.0" encoding="utf-8"?>
<!-- Generator: Adobe Illustrator 16.0.0, SVG Export Plug-In . SVG Version: 6.00 Build 0)  -->
<!DOCTYPE svg PUBLIC "-//W3C//DTD SVG 1.1//EN" "http://www.w3.org/Graphics/SVG/1.1/DTD/svg11.dtd">
<svg version="1.1" id="Calque_1" xmlns="http://www.w3.org/2000/svg" xmlns:xlink="http://www.w3.org/1999/xlink" x="0px" y="0px"
	 width="50px" height="59.998px" viewBox="0 0 50 59.998" enable-background="new 0 0 50 59.998" xml:space="preserve">
<g>
	<path fill="#1E1E1E" d="M48.952,23.929c0,19.166-23.926,36.069-23.926,36.069S1.098,43.165,1.098,23.929
		C1.098,9.459,10.557,0,25.026,0C39.498,0,48.952,9.459,48.952,23.929z"/>
	<path fill="#EAEAEA" d="M35.475,11.416c-2.761,0-5.04,2.118-5.296,4.814H12.85l11.628,11.638v9.232h-6.943v1.021h14.907v-1.021
		h-6.945v-9.232l6.831-6.831c0.889,0.641,1.975,1.029,3.147,1.029c2.943,0,5.334-2.38,5.334-5.327
		C40.809,13.807,38.418,11.416,35.475,11.416z M32.146,19.784c-0.621-0.692-1.039-1.567-1.15-2.535h3.676L32.146,19.784z
		 M30.179,17.25c0.114,1.189,0.626,2.27,1.387,3.103l-6.574,6.577l-9.686-9.68H30.179z M35.475,21.25
		c-0.947,0-1.833-0.298-2.567-0.804l4.216-4.217h-6.128c0.254-2.25,2.167-4,4.479-4c2.494,0,4.519,2.027,4.519,4.51
		C39.993,19.236,37.969,21.25,35.475,21.25z"/>
</g>
</svg>
